<?xml version="1.0" encoding="utf-8"?>

<svg height="30px"
     version="1.1"
     viewBox="0 0 172 30"
     width="172px"
     x="0px"
     xmlns="http://www.w3.org/2000/svg"
     y="0px">
  <path d="M0,22.82h5.87v6.45H0V22.82z" fill="#333" />
  <path d="M24.49,12.38V1.92h5.13v27.35h-5.13v-2.92c-0.55,1.14-1.26,1.99-2.14,2.57s-1.9,0.86-3.08,0.86c-2.25,0-4-0.9-5.24-2.71s-1.86-4.35-1.86-7.63c0-3.33,0.63-5.88,1.89-7.66s3.06-2.67,5.39-2.67c1.05,0,2,0.27,2.84,0.82S23.86,11.29,24.49,12.38zM17.32,19.48c0,1.9,0.32,3.39,0.95,4.46s1.51,1.62,2.62,1.62s1.99-0.54,2.64-1.62s0.97-2.57,0.97-4.46s-0.32-3.39-0.97-4.46s-1.52-1.62-2.64-1.62s-1.99,0.54-2.62,1.62S17.32,17.58,17.32,19.48z" fill="#333" />
  <path d="M33.71,19.44c0-3.18,0.82-5.69,2.47-7.55s3.86-2.79,6.64-2.79c2.79,0,5.01,0.93,6.65,2.79s2.47,4.37,2.47,7.55s-0.82,5.69-2.47,7.55s-3.86,2.79-6.65,2.79c-2.78,0-4.99-0.93-6.64-2.79S33.71,22.62,33.71,19.44zM42.82,13.29c-1.23,0-2.2,0.54-2.9,1.63s-1.05,2.59-1.05,4.53s0.35,3.44,1.05,4.53s1.67,1.63,2.9,1.63c1.24,0,2.21-0.54,2.92-1.63s1.05-2.59,1.05-4.53s-0.35-3.44-1.05-4.53S44.06,13.29,42.82,13.29z" fill="#333" />
  <path d="M64.84,3.99v5.59h6.73v3.96h-6.73v9.32c0,0.88,0.21,1.51,0.64,1.89s1.14,0.57,2.14,0.57h3.96v3.96h-4.32c-2.95,0-4.95-0.47-5.99-1.42s-1.56-2.69-1.56-5.25v-9.07h-5.03V9.58h5.03V3.99H64.84z" fill="#333" />
  <path d="M85.81,7.86v1.72h6.05v3.96h-6.05v15.73h-5.15V13.54h-4.78V9.58h4.78V8.21c0-2.37,0.49-4.01,1.48-4.92s2.81-1.37,5.48-1.37h4.24v3.96h-4.03c-0.77,0-1.3,0.14-1.57,0.42S85.83,7.1,85.81,7.86z" fill="#333" />
  <path d="M96.47,9.58h10.2v15.73h6.4v3.96H95.1v-3.96h6.42V13.54h-5.04V9.58zM101.52,0h5.15v6.01h-5.15V0z" fill="#333" />
  <path d="M118.17,21.06V5.87h-5.22V1.92h10.37v19.14c0,1.55,0.24,2.64,0.72,3.29s1.29,0.97,2.44,0.97h4.11v3.96h-5.55c-2.45,0-4.21-0.63-5.27-1.9S118.17,24,118.17,21.06z" fill="#333" />
  <path d="M151.24,28.3c-1.2,0.49-2.41,0.86-3.66,1.11s-2.55,0.37-3.94,0.37c-3.29,0-5.81-0.88-7.55-2.65s-2.61-4.3-2.61-7.62c0-3.21,0.84-5.75,2.51-7.61s3.96-2.79,6.86-2.79c2.92,0,5.18,0.86,6.79,2.59s2.42,4.16,2.42,7.3v2.09h-13.34c0.01,1.55,0.47,2.7,1.37,3.46s2.25,1.14,4.04,1.14c1.18,0,2.35-0.17,3.5-0.51s2.35-0.88,3.6-1.62V28.3zM146.88,17.23c-0.02-1.36-0.37-2.39-1.05-3.08s-1.67-1.05-2.98-1.05c-1.18,0-2.13,0.36-2.83,1.08s-1.12,1.74-1.25,3.07L146.88,17.23z" fill="#333" />
  <path d="M170.29,10.2v4.5c-0.95-0.61-1.94-1.07-2.96-1.38s-2.05-0.47-3.08-0.47c-1.15,0-2.02,0.17-2.6,0.5s-0.88,0.83-0.88,1.49c0,0.94,1.25,1.7,3.76,2.29l0.19,0.05l1.48,0.35c1.88,0.45,3.25,1.16,4.12,2.15s1.31,2.33,1.31,4.02c0,2.03-0.67,3.55-2,4.56s-3.33,1.52-6,1.52c-1.18,0-2.4-0.1-3.64-0.31s-2.5-0.51-3.78-0.92v-4.5c1.14,0.64,2.29,1.14,3.47,1.48s2.32,0.51,3.42,0.51c1.21,0,2.12-0.18,2.74-0.53s0.93-0.86,0.93-1.53c0-0.66-0.22-1.16-0.66-1.51s-1.49-0.73-3.14-1.12l-1.42-0.32c-1.97-0.45-3.4-1.14-4.31-2.09s-1.35-2.22-1.35-3.81c0-1.9,0.69-3.38,2.06-4.43s3.3-1.58,5.78-1.58c1.11,0,2.22,0.09,3.33,0.27S169.25,9.83,170.29,10.2z" fill="#333" />
</svg>
